# WaveFront *.obj file (generated by Autodesk ATF)

mtllib Socket.mtl

g Solid1

v -0.040000 -0.080000 -0.060000
v -0.040000 -0.080000 0.060000
v -0.040000 0.000000 -0.060000
v -0.040000 0.000000 0.060000
v -0.005000 -0.080000 -0.005000
v -0.005000 -0.080000 0.005000
v -0.005000 0.000000 -0.005000
v -0.005000 0.000000 0.005000
v 0.005000 -0.080000 -0.005000
v 0.005000 -0.080000 0.005000
v 0.005000 0.000000 -0.005000
v 0.005000 0.000000 0.005000
v 0.040000 -0.080000 -0.060000
v 0.040000 -0.080000 0.060000
v 0.040000 0.000000 -0.060000
v 0.040000 0.000000 0.060000
vt 0.000000 0.000000 0.000000
vt 1.000000 0.000000 0.000000
vt 1.000000 8.000000 0.000000
vt 0.000000 8.000000 0.000000
vt 0.000000 0.000000 0.000000
vt 1.000000 0.000000 0.000000
vt 1.000000 8.000000 0.000000
vt 0.000000 8.000000 0.000000
vt 0.000000 0.000000 0.000000
vt 1.000000 0.000000 0.000000
vt 1.000000 8.000000 0.000000
vt 0.000000 8.000000 0.000000
vt 0.000000 0.000000 0.000000
vt 1.000000 0.000000 0.000000
vt 1.000000 8.000000 0.000000
vt 0.000000 8.000000 0.000000
vt 0.000000 0.000000 0.000000
vt 12.000000 0.000000 0.000000
vt 12.000000 8.000000 0.000000
vt 0.000000 8.000000 0.000000
vt 0.000000 0.000000 0.000000
vt 8.000000 0.000000 0.000000
vt 8.000000 8.000000 0.000000
vt 0.000000 8.000000 0.000000
vt 0.000000 0.000000 0.000000
vt 12.000000 0.000000 0.000000
vt 12.000000 8.000000 0.000000
vt 0.000000 8.000000 0.000000
vt 0.000000 0.000000 0.000000
vt 8.000000 0.000000 0.000000
vt 8.000000 8.000000 0.000000
vt 0.000000 8.000000 0.000000
vt 6.000000 -4.000000 0.000000
vt 6.000000 4.000000 0.000000
vt -6.000000 4.000000 0.000000
vt -6.000000 -4.000000 0.000000
vt -0.500000 -0.500000 0.000000
vt -0.500000 0.500000 0.000000
vt 0.500000 0.500000 0.000000
vt 0.500000 -0.500000 0.000000
vt -6.000000 4.000000 0.000000
vt -6.000000 -4.000000 0.000000
vt 6.000000 -4.000000 0.000000
vt 6.000000 4.000000 0.000000
vt 0.500000 0.500000 0.000000
vt 0.500000 -0.500000 0.000000
vt -0.500000 -0.500000 0.000000
vt -0.500000 0.500000 0.000000
vn -100.000000 0.000000 0.000000
vn -100.000000 0.000000 0.000000
vn -100.000000 0.000000 0.000000
vn -100.000000 0.000000 0.000000
vn 0.000000 0.000000 -100.000000
vn 0.000000 0.000000 -100.000000
vn 0.000000 0.000000 -100.000000
vn 0.000000 0.000000 -100.000000
vn 100.000000 0.000000 0.000000
vn 100.000000 0.000000 0.000000
vn 100.000000 0.000000 0.000000
vn 100.000000 0.000000 0.000000
vn 0.000000 0.000000 100.000000
vn 0.000000 0.000000 100.000000
vn 0.000000 0.000000 100.000000
vn 0.000000 0.000000 100.000000
vn 100.000000 0.000000 0.000000
vn 100.000000 0.000000 0.000000
vn 100.000000 0.000000 0.000000
vn 100.000000 0.000000 0.000000
vn 0.000000 0.000000 -100.000000
vn 0.000000 0.000000 -100.000000
vn 0.000000 0.000000 -100.000000
vn 0.000000 0.000000 -100.000000
vn -100.000000 0.000000 0.000000
vn -100.000000 0.000000 0.000000
vn -100.000000 0.000000 0.000000
vn -100.000000 0.000000 0.000000
vn 0.000000 0.000000 100.000000
vn 0.000000 0.000000 100.000000
vn 0.000000 0.000000 100.000000
vn 0.000000 0.000000 100.000000
vn 0.000000 100.000000 0.000000
vn 0.000000 100.000000 0.000000
vn 0.000000 100.000000 0.000000
vn 0.000000 100.000000 0.000000
vn 0.000000 100.000000 0.000000
vn 0.000000 100.000000 0.000000
vn 0.000000 100.000000 0.000000
vn 0.000000 100.000000 0.000000
vn 0.000000 -100.000000 0.000000
vn 0.000000 -100.000000 0.000000
vn 0.000000 -100.000000 0.000000
vn 0.000000 -100.000000 0.000000
vn 0.000000 -100.000000 0.000000
vn 0.000000 -100.000000 0.000000
vn 0.000000 -100.000000 0.000000
vn 0.000000 -100.000000 0.000000
usemtl 191,191,191
f 12/1/1 11/2/2 10/4/4
f 10/4/4 11/2/2 9/3/3
f 8/5/5 12/6/6 6/8/8
f 6/8/8 12/6/6 10/7/7
f 7/9/9 8/10/10 5/12/12
f 5/12/12 8/10/10 6/11/11
f 11/13/13 7/14/14 9/16/16
f 9/16/16 7/14/14 5/15/15
f 15/17/17 16/18/18 13/20/20
f 13/20/20 16/18/18 14/19/19
f 3/21/21 15/22/22 1/24/24
f 1/24/24 15/22/22 13/23/23
f 4/25/25 3/26/26 2/28/28
f 2/28/28 3/26/26 1/27/27
f 16/29/29 4/30/30 14/32/32
f 14/32/32 4/30/30 2/31/31
f 16/34/34 12/39/39 4/33/33
f 4/33/33 12/39/39 8/40/40
f 4/33/33 8/40/40 7/37/37
f 16/34/34 15/35/35 12/39/39
f 12/39/39 15/35/35 11/38/38
f 11/38/38 15/35/35 3/36/36
f 11/38/38 3/36/36 7/37/37
f 7/37/37 3/36/36 4/33/33
f 2/42/42 10/48/48 14/41/41
f 14/41/41 10/48/48 9/45/45
f 14/41/41 9/45/45 13/44/44
f 13/44/44 9/45/45 1/43/43
f 1/43/43 9/45/45 5/46/46
f 1/43/43 5/46/46 6/47/47
f 10/48/48 2/42/42 6/47/47
f 6/47/47 2/42/42 1/43/43
# 16 vertices
# 48 texture params
# 48 normals
# 32 facets

# 1 groups
